{
    "asset" : {
        "generator" : "Khronos glTF Blender I/O v1.5.17",
        "version" : "2.0"
    },
    "scene" : 0,
    "scenes" : [
        {
            "name" : "Scene",
            "nodes" : [
                0
            ]
        }
    ],
    "nodes" : [
        {
            "mesh" : 0,
            "name" : "Broken Shovel"
        }
    ],
    "materials" : [
        {
            "doubleSided" : true,
            "name" : "Broken Shovel Material",
            "pbrMetallicRoughness" : {
                "baseColorTexture" : {
                    "index" : 0
                },
                "metallicFactor" : 0,
                "roughnessFactor" : 0.4000000059604645
            }
        }
    ],
    "meshes" : [
        {
            "name" : "Broken Shovel Mesh",
            "primitives" : [
                {
                    "attributes" : {
                        "POSITION" : 0,
                        "NORMAL" : 1,
                        "TEXCOORD_0" : 2,
                        "COLOR_0" : 3
                    },
                    "indices" : 4,
                    "material" : 0
                }
            ]
        }
    ],
    "textures" : [
        {
            "sampler" : 0,
            "source" : 0
        }
    ],
    "images" : [
        {
            "bufferView" : 5,
            "mimeType" : "image/png",
            "name" : "Shovel's Texture"
        }
    ],
    "accessors" : [
        {
            "bufferView" : 0,
            "componentType" : 5126,
            "count" : 241,
            "max" : [
                0.12225853651762009,
                6.692444801330566,
                0.7060250043869019
            ],
            "min" : [
                -0.12225853651762009,
                -1.0837191343307495,
                -0.7060250043869019
            ],
            "type" : "VEC3"
        },
        {
            "bufferView" : 1,
            "componentType" : 5126,
            "count" : 241,
            "type" : "VEC3"
        },
        {
            "bufferView" : 2,
            "componentType" : 5126,
            "count" : 241,
            "type" : "VEC2"
        },
        {
            "bufferView" : 3,
            "componentType" : 5123,
            "count" : 241,
            "normalized" : true,
            "type" : "VEC4"
        },
        {
            "bufferView" : 4,
            "componentType" : 5123,
            "count" : 258,
            "type" : "SCALAR"
        }
    ],
    "bufferViews" : [
        {
            "buffer" : 0,
            "byteLength" : 2892,
            "byteOffset" : 0
        },
        {
            "buffer" : 0,
            "byteLength" : 2892,
            "byteOffset" : 2892
        },
        {
            "buffer" : 0,
            "byteLength" : 1928,
            "byteOffset" : 5784
        },
        {
            "buffer" : 0,
            "byteLength" : 1928,
            "byteOffset" : 7712
        },
        {
            "buffer" : 0,
            "byteLength" : 516,
            "byteOffset" : 9640
        },
        {
            "buffer" : 0,
            "byteLength" : 2490,
            "byteOffset" : 10156
        }
    ],
    "samplers" : [
        {
            "magFilter" : 9728,
            "minFilter" : 9984
        }
    ],
    "buffers" : [
        {
            "byteLength" : 12648,
            "uri" : "data:application/octet-stream;base64,"
        }
    ]
}
