<?xml version="1.0" encoding="UTF-8" standalone="no"?>
<!-- Created with Inkscape (http://www.inkscape.org/) -->

<svg
   width="512"
   height="512"
   viewBox="0 0 512 512"
   version="1.1"
   id="svg1"
   xml:space="preserve"
   inkscape:version="1.4.3 (0d15f75042, 2025-12-25)"
   sodipodi:docname="hf.svg"
   xmlns:inkscape="http://www.inkscape.org/namespaces/inkscape"
   xmlns:sodipodi="http://sodipodi.sourceforge.net/DTD/sodipodi-0.dtd"
   xmlns="http://www.w3.org/2000/svg"
   xmlns:svg="http://www.w3.org/2000/svg"><sodipodi:namedview
     id="namedview1"
     pagecolor="#505050"
     bordercolor="#eeeeee"
     borderopacity="1"
     inkscape:showpageshadow="0"
     inkscape:pageopacity="0"
     inkscape:pagecheckerboard="0"
     inkscape:deskcolor="#505050"
     inkscape:document-units="px"
     showgrid="false"
     inkscape:zoom="1.0178471"
     inkscape:cx="245.61646"
     inkscape:cy="363.02113"
     inkscape:window-width="949"
     inkscape:window-height="971"
     inkscape:window-x="0"
     inkscape:window-y="0"
     inkscape:window-maximized="0"
     inkscape:current-layer="layer1"><inkscape:grid
       id="grid1"
       units="px"
       originx="0"
       originy="0"
       spacingx="8"
       spacingy="8"
       empcolor="#0099e5"
       empopacity="0.30196078"
       color="#0099e5"
       opacity="0.14901961"
       empspacing="5"
       enabled="true"
       visible="false" /></sodipodi:namedview><defs
     id="defs1" /><g
     inkscape:label="Layer 1"
     inkscape:groupmode="layer"
     id="layer1"><path
       style="display:inline;fill:#d4d2a5;fill-opacity:1;stroke:#d4d2a5;stroke-width:5;stroke-linecap:round;stroke-linejoin:round;stroke-dasharray:none;stroke-opacity:1;paint-order:normal"
       d="M 244,20 68,108 c -8,4.6188 -16,8 -16,16 v 264 c 0,8 8,11.3812 16,16 l 176,88 c 8,4.6188 16,4.6188 24,0 l 176,-88 c 8,-4.6188 16,-8 16,-16 V 124 c 0,-8 -8,-11.3812 -16,-16 L 268,20 c -8,-4.618802 -16,-4.618802 -24,0 z"
       id="path1"
       sodipodi:nodetypes="ccccccccccccc"
       inkscape:label="Hexagon" /><circle
       style="display:inline;fill:#000000;fill-opacity:1;stroke:#000000;stroke-width:5;stroke-linecap:round;stroke-linejoin:round;stroke-dasharray:none;stroke-opacity:1;paint-order:normal"
       id="path2"
       cy="124"
       cx="388"
       r="20"
       inkscape:label="SmallBlob" /><circle
       style="display:inline;fill:#000000;fill-opacity:1;stroke:#000000;stroke-width:5;stroke-linecap:round;stroke-linejoin:round;stroke-dasharray:none;stroke-opacity:1;paint-order:normal"
       id="path4"
       cx="92"
       cy="276"
       r="28"
       inkscape:label="NotAsSmallBlob" /><circle
       style="display:inline;fill:#000000;fill-opacity:1;stroke:#000000;stroke-width:5;stroke-linecap:round;stroke-linejoin:round;stroke-dasharray:none;stroke-opacity:1;paint-order:normal"
       id="path5"
       cx="228"
       cy="180"
       r="124"
       inkscape:label="AlmostBigBlob" /><circle
       style="display:inline;fill:#000000;fill-opacity:1;stroke:#000000;stroke-width:5;stroke-linecap:round;stroke-linejoin:round;stroke-dasharray:none;stroke-opacity:1;paint-order:normal"
       id="path6"
       cx="320"
       cy="112"
       r="32"
       inkscape:label="SmallMiddleBlob" /><circle
       style="display:inline;fill:#000000;fill-opacity:1;stroke:#000000;stroke-width:5;stroke-linecap:round;stroke-linejoin:round;stroke-dasharray:none;stroke-opacity:1;paint-order:normal"
       id="path7"
       cx="144"
       cy="384"
       r="48"
       inkscape:label="BigMiddleBlob" /><circle
       style="display:inline;fill:#000000;fill-opacity:1;stroke:#000000;stroke-width:5;stroke-linecap:round;stroke-linejoin:round;stroke-dasharray:none;stroke-opacity:1;paint-order:normal"
       id="path9"
       cx="308"
       cy="316"
       r="156"
       inkscape:label="BigBlob" /><path
       id="path10"
       style="display:inline;fill:#ffffff;fill-opacity:1;stroke:none;stroke-width:5;stroke-linecap:round;stroke-linejoin:round;stroke-dasharray:none;stroke-opacity:1;paint-order:normal"
       d="M 216 112 C 184 112 176 136 176 156 C 176 192 203.33112 228.05246 240 240 C 220.81676 217.39118 192 184 192 156 C 192 144 192 128 216 128 C 240 128 251.27965 152 256 152 C 260.72035 152 272 128 296 128 C 320 128 320 144 320 156 C 320 184 270 238 254 254 C 238 270 176 320 176 356 C 176 376 184 400 216 400 C 240 400 248 384 256 376 C 264 384 272 400 296 400 C 328 400 336 376 336 356 C 336 320 308.66888 283.94754 272 272 C 291.18324 294.60882 320 328 320 356 C 320 368 320 384 296 384 C 272 384 260.72035 360 256 360 C 251.27965 360 240 384 216 384 C 192 384 192 368 192 356 C 192 328 242 274 258 258 C 274 242 336 192 336 156 C 336 136 328 112 296 112 C 272 112 264 128 256 136 C 248 128 240 112 216 112 z "
       inkscape:label="Heart" /></g></svg>
